{
	"patcher" : 	{
		"fileversion" : 1,
		"appversion" : 		{
			"major" : 7,
			"minor" : 3,
			"revision" : 4,
			"architecture" : "x64",
			"modernui" : 1
		}
,
		"rect" : [ 596.0, 674.0, 871.0, 639.0 ],
		"bglocked" : 0,
		"openinpresentation" : 1,
		"default_fontsize" : 12.0,
		"default_fontface" : 0,
		"default_fontname" : "Arial",
		"gridonopen" : 1,
		"gridsize" : [ 8.0, 8.0 ],
		"gridsnaponopen" : 2,
		"objectsnaponopen" : 1,
		"statusbarvisible" : 2,
		"toolbarvisible" : 1,
		"lefttoolbarpinned" : 0,
		"toptoolbarpinned" : 0,
		"righttoolbarpinned" : 0,
		"bottomtoolbarpinned" : 0,
		"toolbars_unpinned_last_save" : 0,
		"tallnewobj" : 0,
		"boxanimatetime" : 200,
		"enablehscroll" : 1,
		"enablevscroll" : 1,
		"devicewidth" : 0.0,
		"description" : "",
		"digest" : "",
		"tags" : "",
		"style" : "",
		"subpatcher_template" : "",
		"boxes" : [ 			{
				"box" : 				{
					"bgmode" : 0,
					"border" : 0,
					"clickthrough" : 0,
					"embed" : 1,
					"enablehscroll" : 0,
					"enablevscroll" : 0,
					"id" : "obj-31",
					"lockeddragscroll" : 0,
					"maxclass" : "bpatcher",
					"name" : "ui-swap-grouping.maxpat",
					"numinlets" : 1,
					"numoutlets" : 0,
					"offset" : [ 0.0, -48.0 ],
					"patcher" : 					{
						"fileversion" : 1,
						"appversion" : 						{
							"major" : 7,
							"minor" : 3,
							"revision" : 4,
							"architecture" : "x64",
							"modernui" : 1
						}
,
						"rect" : [ 946.0, 785.0, 640.0, 480.0 ],
						"bglocked" : 0,
						"openinpresentation" : 0,
						"default_fontsize" : 12.0,
						"default_fontface" : 0,
						"default_fontname" : "Arial",
						"gridonopen" : 1,
						"gridsize" : [ 6.0, 6.0 ],
						"gridsnaponopen" : 1,
						"objectsnaponopen" : 1,
						"statusbarvisible" : 2,
						"toolbarvisible" : 1,
						"lefttoolbarpinned" : 0,
						"toptoolbarpinned" : 0,
						"righttoolbarpinned" : 0,
						"bottomtoolbarpinned" : 0,
						"toolbars_unpinned_last_save" : 0,
						"tallnewobj" : 0,
						"boxanimatetime" : 200,
						"enablehscroll" : 1,
						"enablevscroll" : 1,
						"devicewidth" : 0.0,
						"description" : "",
						"digest" : "",
						"tags" : "",
						"style" : "",
						"subpatcher_template" : "",
						"boxes" : [ 							{
								"box" : 								{
									"comment" : "",
									"id" : "obj-7",
									"index" : 1,
									"maxclass" : "inlet",
									"numinlets" : 0,
									"numoutlets" : 1,
									"outlettype" : [ "" ],
									"patching_rect" : [ 137.0, 188.0, 30.0, 30.0 ],
									"style" : ""
								}

							}
, 							{
								"box" : 								{
									"id" : "obj-6",
									"maxclass" : "newobj",
									"numinlets" : 1,
									"numoutlets" : 2,
									"outlettype" : [ "", "" ],
									"patching_rect" : [ 137.0, 242.0, 100.0, 22.0 ],
									"save" : [ "#N", "thispatcher", ";", "#Q", "end", ";" ],
									"style" : "",
									"text" : "thispatcher"
								}

							}
, 							{
								"box" : 								{
									"id" : "obj-1",
									"maxclass" : "comment",
									"numinlets" : 1,
									"numoutlets" : 0,
									"patching_rect" : [ -3.0, 96.0, 46.0, 20.0 ],
									"presentation" : 1,
									"presentation_rect" : [ -2.0, 56.0, 32.0, 20.0 ],
									"style" : "",
									"text" : "size"
								}

							}
, 							{
								"box" : 								{
									"fontface" : 0,
									"fontsize" : 12.0,
									"id" : "obj-172",
									"maxclass" : "live.numbox",
									"numinlets" : 1,
									"numoutlets" : 2,
									"outlettype" : [ "", "float" ],
									"parameter_enable" : 1,
									"patching_rect" : [ 0.0, 66.0, 39.0, 17.0 ],
									"presentation" : 1,
									"presentation_rect" : [ 75.661194, 71.5, 24.0, 17.0 ],
									"saved_attribute_attributes" : 									{
										"valueof" : 										{
											"parameter_longname" : "velocity range[17]",
											"parameter_shortname" : "velrange",
											"parameter_type" : 1,
											"parameter_mmin" : 1.0,
											"parameter_mmax" : 64.0,
											"parameter_initial_enable" : 1,
											"parameter_initial" : [ 1.0 ],
											"parameter_unitstyle" : 0,
											"parameter_speedlim" : 5.0,
											"parameter_invisible" : 2
										}

									}
,
									"varname" : "velrange[11]"
								}

							}
, 							{
								"box" : 								{
									"fontface" : 0,
									"fontname" : "Arial",
									"fontsize" : 16.0,
									"id" : "obj-166",
									"maxclass" : "comment",
									"numinlets" : 1,
									"numoutlets" : 0,
									"patching_rect" : [ 33.0, 112.0, 25.0, 25.0 ],
									"presentation" : 1,
									"presentation_rect" : [ 91.629211, 92.0, 25.0, 25.0 ],
									"style" : "",
									"text" : "/",
									"textjustification" : 1
								}

							}
, 							{
								"box" : 								{
									"fontface" : 0,
									"fontsize" : 12.0,
									"id" : "obj-167",
									"maxclass" : "live.menu",
									"numinlets" : 1,
									"numoutlets" : 3,
									"outlettype" : [ "", "", "float" ],
									"parameter_enable" : 1,
									"patching_rect" : [ 53.0, 114.0, 36.0, 17.0 ],
									"presentation" : 1,
									"presentation_rect" : [ 109.629211, 94.5, 30.968506, 17.0 ],
									"saved_attribute_attributes" : 									{
										"valueof" : 										{
											"parameter_longname" : "live.menu[17]",
											"parameter_shortname" : "live.menu",
											"parameter_type" : 2,
											"parameter_enum" : [ "1", "2", "4", "8", "16", "32", "64" ],
											"parameter_initial_enable" : 1,
											"parameter_initial" : [ 2.0 ],
											"parameter_invisible" : 2
										}

									}
,
									"varname" : "live.menu[10]"
								}

							}
, 							{
								"box" : 								{
									"fontface" : 0,
									"fontsize" : 12.0,
									"id" : "obj-168",
									"maxclass" : "live.numbox",
									"numinlets" : 1,
									"numoutlets" : 2,
									"outlettype" : [ "", "float" ],
									"parameter_enable" : 1,
									"patching_rect" : [ 0.0, 114.0, 39.0, 17.0 ],
									"presentation" : 1,
									"presentation_rect" : [ 75.661194, 94.5, 24.0, 17.0 ],
									"saved_attribute_attributes" : 									{
										"valueof" : 										{
											"parameter_longname" : "velocity range[19]",
											"parameter_shortname" : "velrange",
											"parameter_type" : 1,
											"parameter_mmin" : 1.0,
											"parameter_mmax" : 64.0,
											"parameter_initial_enable" : 1,
											"parameter_initial" : [ 1.0 ],
											"parameter_unitstyle" : 0,
											"parameter_speedlim" : 5.0,
											"parameter_invisible" : 2
										}

									}
,
									"varname" : "velrange[10]"
								}

							}
, 							{
								"box" : 								{
									"fontface" : 0,
									"fontsize" : 12.0,
									"id" : "obj-169",
									"maxclass" : "live.text",
									"numinlets" : 1,
									"numoutlets" : 2,
									"outlettype" : [ "", "" ],
									"parameter_enable" : 1,
									"patching_rect" : [ 96.0, 114.0, 39.0, 17.0 ],
									"presentation" : 1,
									"presentation_rect" : [ 144.067566, 94.5, 37.998413, 17.0 ],
									"saved_attribute_attributes" : 									{
										"valueof" : 										{
											"parameter_longname" : "live.text[9]",
											"parameter_shortname" : "live.text[2]",
											"parameter_type" : 2,
											"parameter_mmax" : 1.0,
											"parameter_enum" : [ "val1", "val2" ],
											"parameter_invisible" : 2
										}

									}
,
									"text" : "triplet",
									"texton" : "triplet",
									"varname" : "live.text[6]"
								}

							}
, 							{
								"box" : 								{
									"id" : "obj-165",
									"maxclass" : "comment",
									"numinlets" : 1,
									"numoutlets" : 0,
									"patching_rect" : [ -3.0, 48.0, 46.0, 20.0 ],
									"presentation" : 1,
									"presentation_rect" : [ 75.661194, 51.5, 32.0, 20.0 ],
									"style" : "",
									"text" : "size"
								}

							}
, 							{
								"box" : 								{
									"fontface" : 0,
									"fontsize" : 12.0,
									"id" : "obj-164",
									"maxclass" : "live.menu",
									"numinlets" : 1,
									"numoutlets" : 3,
									"outlettype" : [ "", "", "float" ],
									"parameter_enable" : 1,
									"patching_rect" : [ 92.0, 66.0, 43.0, 17.0 ],
									"presentation" : 1,
									"presentation_rect" : [ 144.067566, 71.5, 36.486755, 17.0 ],
									"saved_attribute_attributes" : 									{
										"valueof" : 										{
											"parameter_longname" : "live.menu[21]",
											"parameter_shortname" : "live.menu[5]",
											"parameter_type" : 2,
											"parameter_enum" : [ "first", "last", "any", "new" ],
											"parameter_invisible" : 2
										}

									}
,
									"varname" : "live.menu[8]"
								}

							}
, 							{
								"box" : 								{
									"id" : "obj-163",
									"maxclass" : "comment",
									"numinlets" : 1,
									"numoutlets" : 0,
									"patching_rect" : [ 89.0, 48.0, 54.0, 20.0 ],
									"presentation" : 1,
									"presentation_rect" : [ 144.067566, 51.5, 44.473511, 20.0 ],
									"style" : "",
									"text" : "extras"
								}

							}
 ],
						"lines" : [ 							{
								"patchline" : 								{
									"destination" : [ "obj-6", 0 ],
									"source" : [ "obj-7", 0 ]
								}

							}
 ],
						"styles" : [ 							{
								"name" : "newobjBlue-1",
								"default" : 								{
									"accentcolor" : [ 0.317647, 0.654902, 0.976471, 1.0 ]
								}
,
								"parentstyle" : "",
								"multi" : 0
							}
, 							{
								"name" : "newobjGreen-1",
								"default" : 								{
									"accentcolor" : [ 0.0, 0.533333, 0.168627, 1.0 ]
								}
,
								"parentstyle" : "",
								"multi" : 0
							}
, 							{
								"name" : "newobjYellow-1",
								"default" : 								{
									"fontsize" : [ 12.059008 ],
									"accentcolor" : [ 0.82517, 0.78181, 0.059545, 1.0 ]
								}
,
								"parentstyle" : "",
								"multi" : 0
							}
 ]
					}
,
					"patching_rect" : [ 97.0, 296.0, 156.47406, 48.0 ],
					"presentation" : 1,
					"presentation_rect" : [ 58.748199, 45.5, 159.0, 40.0 ],
					"viewvisibility" : 1
				}

			}
, 			{
				"box" : 				{
					"id" : "obj-25",
					"maxclass" : "newobj",
					"numinlets" : 2,
					"numoutlets" : 1,
					"outlettype" : [ "int" ],
					"patching_rect" : [ 97.0, 200.0, 36.0, 22.0 ],
					"style" : "",
					"text" : "* -48"
				}

			}
, 			{
				"box" : 				{
					"id" : "obj-24",
					"maxclass" : "message",
					"numinlets" : 2,
					"numoutlets" : 1,
					"outlettype" : [ "" ],
					"patching_rect" : [ 97.0, 240.0, 66.0, 22.0 ],
					"style" : "",
					"text" : "offset 0 $1"
				}

			}
, 			{
				"box" : 				{
					"id" : "obj-36",
					"maxclass" : "newobj",
					"numinlets" : 0,
					"numoutlets" : 2,
					"outlettype" : [ "", "" ],
					"patcher" : 					{
						"fileversion" : 1,
						"appversion" : 						{
							"major" : 7,
							"minor" : 3,
							"revision" : 4,
							"architecture" : "x64",
							"modernui" : 1
						}
,
						"rect" : [ 988.0, 282.0, 697.0, 441.0 ],
						"bglocked" : 0,
						"openinpresentation" : 0,
						"default_fontsize" : 12.0,
						"default_fontface" : 0,
						"default_fontname" : "Arial",
						"gridonopen" : 1,
						"gridsize" : [ 15.0, 15.0 ],
						"gridsnaponopen" : 1,
						"objectsnaponopen" : 1,
						"statusbarvisible" : 2,
						"toolbarvisible" : 1,
						"lefttoolbarpinned" : 0,
						"toptoolbarpinned" : 0,
						"righttoolbarpinned" : 0,
						"bottomtoolbarpinned" : 0,
						"toolbars_unpinned_last_save" : 0,
						"tallnewobj" : 0,
						"boxanimatetime" : 200,
						"enablehscroll" : 1,
						"enablevscroll" : 1,
						"devicewidth" : 0.0,
						"description" : "",
						"digest" : "",
						"tags" : "",
						"style" : "",
						"subpatcher_template" : "",
						"boxes" : [ 							{
								"box" : 								{
									"id" : "obj-4",
									"maxclass" : "newobj",
									"numinlets" : 1,
									"numoutlets" : 1,
									"outlettype" : [ "" ],
									"patching_rect" : [ 39.0, 195.0, 127.0, 22.0 ],
									"style" : "",
									"text" : "prepend elementcolor"
								}

							}
, 							{
								"box" : 								{
									"id" : "obj-2",
									"maxclass" : "newobj",
									"numinlets" : 1,
									"numoutlets" : 1,
									"outlettype" : [ "" ],
									"patching_rect" : [ 557.0, 195.0, 97.0, 22.0 ],
									"style" : "",
									"text" : "prepend bgcolor"
								}

							}
, 							{
								"box" : 								{
									"id" : "obj-3",
									"maxclass" : "newobj",
									"numinlets" : 1,
									"numoutlets" : 1,
									"outlettype" : [ "" ],
									"patching_rect" : [ 451.0, 195.0, 97.0, 22.0 ],
									"style" : "",
									"text" : "prepend bgcolor"
								}

							}
, 							{
								"box" : 								{
									"id" : "obj-1",
									"maxclass" : "newobj",
									"numinlets" : 2,
									"numoutlets" : 2,
									"outlettype" : [ "", "" ],
									"patching_rect" : [ 451.0, 133.5, 94.0, 22.0 ],
									"style" : "",
									"text" : "route control_fg"
								}

							}
, 							{
								"box" : 								{
									"id" : "obj-32",
									"maxclass" : "newobj",
									"numinlets" : 1,
									"numoutlets" : 1,
									"outlettype" : [ "" ],
									"patching_rect" : [ 293.0, 195.0, 113.0, 22.0 ],
									"style" : "",
									"text" : "prepend slidercolor"
								}

							}
, 							{
								"box" : 								{
									"id" : "obj-30",
									"maxclass" : "newobj",
									"numinlets" : 2,
									"numoutlets" : 2,
									"outlettype" : [ "", "" ],
									"patching_rect" : [ 189.0, 133.5, 131.0, 22.0 ],
									"style" : "",
									"text" : "route control_selection"
								}

							}
, 							{
								"box" : 								{
									"id" : "obj-22",
									"maxclass" : "newobj",
									"numinlets" : 0,
									"numoutlets" : 1,
									"outlettype" : [ "" ],
									"patching_rect" : [ 344.0, 22.0, 62.0, 22.0 ],
									"style" : "",
									"text" : "r ---colors"
								}

							}
, 							{
								"box" : 								{
									"id" : "obj-17",
									"maxclass" : "newobj",
									"numinlets" : 1,
									"numoutlets" : 1,
									"outlettype" : [ "" ],
									"patching_rect" : [ 189.0, 195.0, 84.0, 22.0 ],
									"style" : "",
									"text" : "prepend color"
								}

							}
, 							{
								"box" : 								{
									"comment" : "",
									"id" : "obj-33",
									"index" : 1,
									"maxclass" : "outlet",
									"numinlets" : 1,
									"numoutlets" : 0,
									"patching_rect" : [ 189.0, 370.0, 30.0, 30.0 ],
									"style" : ""
								}

							}
, 							{
								"box" : 								{
									"comment" : "",
									"id" : "obj-35",
									"index" : 2,
									"maxclass" : "outlet",
									"numinlets" : 1,
									"numoutlets" : 0,
									"patching_rect" : [ 445.0, 370.0, 30.0, 30.0 ],
									"style" : ""
								}

							}
 ],
						"lines" : [ 							{
								"patchline" : 								{
									"destination" : [ "obj-2", 0 ],
									"order" : 0,
									"source" : [ "obj-1", 0 ]
								}

							}
, 							{
								"patchline" : 								{
									"destination" : [ "obj-3", 0 ],
									"order" : 1,
									"source" : [ "obj-1", 0 ]
								}

							}
, 							{
								"patchline" : 								{
									"destination" : [ "obj-33", 0 ],
									"source" : [ "obj-17", 0 ]
								}

							}
, 							{
								"patchline" : 								{
									"destination" : [ "obj-35", 0 ],
									"source" : [ "obj-2", 0 ]
								}

							}
, 							{
								"patchline" : 								{
									"destination" : [ "obj-1", 0 ],
									"order" : 0,
									"source" : [ "obj-22", 0 ]
								}

							}
, 							{
								"patchline" : 								{
									"destination" : [ "obj-30", 0 ],
									"order" : 1,
									"source" : [ "obj-22", 0 ]
								}

							}
, 							{
								"patchline" : 								{
									"destination" : [ "obj-33", 0 ],
									"source" : [ "obj-3", 0 ]
								}

							}
, 							{
								"patchline" : 								{
									"destination" : [ "obj-17", 0 ],
									"order" : 1,
									"source" : [ "obj-30", 0 ]
								}

							}
, 							{
								"patchline" : 								{
									"destination" : [ "obj-32", 0 ],
									"order" : 0,
									"source" : [ "obj-30", 0 ]
								}

							}
, 							{
								"patchline" : 								{
									"destination" : [ "obj-4", 0 ],
									"order" : 2,
									"source" : [ "obj-30", 0 ]
								}

							}
, 							{
								"patchline" : 								{
									"destination" : [ "obj-35", 0 ],
									"source" : [ "obj-32", 0 ]
								}

							}
, 							{
								"patchline" : 								{
									"destination" : [ "obj-33", 0 ],
									"source" : [ "obj-4", 0 ]
								}

							}
 ]
					}
,
					"patching_rect" : [ 440.0, 208.0, 69.0, 22.0 ],
					"saved_object_attributes" : 					{
						"description" : "",
						"digest" : "",
						"globalpatchername" : "",
						"style" : "",
						"tags" : ""
					}
,
					"style" : "",
					"text" : "p r---colors"
				}

			}
, 			{
				"box" : 				{
					"id" : "obj-162",
					"maxclass" : "comment",
					"numinlets" : 1,
					"numoutlets" : 0,
					"patching_rect" : [ 97.0, 127.0, 58.0, 20.0 ],
					"presentation" : 1,
					"presentation_rect" : [ -4.251801, 43.5, 61.0, 20.0 ],
					"style" : "",
					"text" : "group"
				}

			}
, 			{
				"box" : 				{
					"activebgcolor" : [ 0.92549, 0.364706, 0.341176, 0.2 ],
					"activebgoncolor" : [ 0.92549, 0.364706, 0.341176, 1.0 ],
					"fontface" : 0,
					"fontsize" : 12.0,
					"id" : "obj-156",
					"maxclass" : "live.text",
					"mode" : 0,
					"numinlets" : 1,
					"numoutlets" : 2,
					"outlettype" : [ "", "" ],
					"parameter_enable" : 1,
					"patching_rect" : [ 583.25, 337.0, 40.0, 20.0 ],
					"presentation" : 1,
					"presentation_rect" : [ 168.985596, 115.0, 44.486755, 20.0 ],
					"saved_attribute_attributes" : 					{
						"valueof" : 						{
							"parameter_longname" : "live.text[20]",
							"parameter_shortname" : "live.text[6]",
							"parameter_type" : 2,
							"parameter_mmax" : 1.0,
							"parameter_enum" : [ "val1", "val2" ],
							"parameter_invisible" : 2
						}

					}
,
					"text" : "pairs",
					"varname" : "live.text[15]"
				}

			}
, 			{
				"box" : 				{
					"fontface" : 0,
					"fontsize" : 12.0,
					"id" : "obj-139",
					"maxclass" : "live.menu",
					"numinlets" : 1,
					"numoutlets" : 3,
					"outlettype" : [ "", "", "float" ],
					"parameter_enable" : 1,
					"patching_rect" : [ 97.0, 151.625, 48.0, 17.0 ],
					"presentation" : 1,
					"presentation_rect" : [ 0.0, 63.5, 47.32843, 17.0 ],
					"saved_attribute_attributes" : 					{
						"valueof" : 						{
							"parameter_longname" : "live.menu[13]",
							"parameter_shortname" : "live.menu[5]",
							"parameter_type" : 2,
							"parameter_enum" : [ "all", "notes", "time" ],
							"parameter_initial_enable" : 1,
							"parameter_initial" : [ 0.0 ],
							"parameter_invisible" : 2
						}

					}
,
					"varname" : "live.menu[9]"
				}

			}
, 			{
				"box" : 				{
					"id" : "obj-129",
					"maxclass" : "comment",
					"numinlets" : 1,
					"numoutlets" : 0,
					"patching_rect" : [ 90.0, 53.0, 49.0, 20.0 ],
					"presentation" : 1,
					"presentation_rect" : [ 0.0, -5.0, 69.0, 20.0 ],
					"style" : "",
					"text" : "target"
				}

			}
, 			{
				"box" : 				{
					"activebgcolor" : [ 0.92549, 0.364706, 0.341176, 0.2 ],
					"activebgoncolor" : [ 0.92549, 0.364706, 0.341176, 1.0 ],
					"fontface" : 0,
					"fontsize" : 12.0,
					"id" : "obj-110",
					"maxclass" : "live.text",
					"mode" : 0,
					"numinlets" : 1,
					"numoutlets" : 2,
					"outlettype" : [ "", "" ],
					"parameter_enable" : 1,
					"patching_rect" : [ 592.0, 368.0, 40.0, 20.0 ],
					"presentation" : 1,
					"presentation_rect" : [ 168.985596, 180.5, 44.486755, 20.0 ],
					"saved_attribute_attributes" : 					{
						"valueof" : 						{
							"parameter_longname" : "live.text[16]",
							"parameter_shortname" : "live.text[6]",
							"parameter_type" : 2,
							"parameter_mmax" : 1.0,
							"parameter_enum" : [ "val1", "val2" ],
							"parameter_invisible" : 2
						}

					}
,
					"text" : "zip",
					"varname" : "live.text[10]"
				}

			}
, 			{
				"box" : 				{
					"contdata" : 1,
					"id" : "obj-92",
					"maxclass" : "multislider",
					"numinlets" : 1,
					"numoutlets" : 2,
					"outlettype" : [ "", "" ],
					"parameter_enable" : 0,
					"patching_rect" : [ 519.450012, 307.0, 33.749329, 50.0 ],
					"presentation" : 1,
					"presentation_rect" : [ 132.704102, 112.0, 24.0, 120.0 ],
					"slidercolor" : [ 1.0, 0.235294, 0.235294, 1.0 ],
					"style" : "",
					"thickness" : 3
				}

			}
, 			{
				"box" : 				{
					"bottomvalue" : -100,
					"color" : [ 1.0, 0.235294, 0.235294, 1.0 ],
					"elementcolor" : [ 1.0, 0.235294, 0.235294, 1.0 ],
					"id" : "obj-93",
					"leftvalue" : -100,
					"maxclass" : "pictslider",
					"numinlets" : 2,
					"numoutlets" : 2,
					"outlettype" : [ "int", "int" ],
					"parameter_enable" : 0,
					"patching_rect" : [ 414.450012, 314.0, 70.5, 43.0 ],
					"presentation" : 1,
					"presentation_rect" : [ 0.0, 112.0, 120.0, 120.0 ],
					"rightvalue" : 100,
					"style" : "",
					"topvalue" : 100
				}

			}
, 			{
				"box" : 				{
					"fontface" : 0,
					"id" : "obj-37",
					"maxclass" : "comment",
					"numinlets" : 1,
					"numoutlets" : 0,
					"patching_rect" : [ 502.199341, 283.5, 51.0, 20.0 ],
					"presentation" : 1,
					"presentation_rect" : [ 122.175537, 93.5, 47.0, 20.0 ],
					"style" : "",
					"text" : "rotate",
					"textjustification" : 1
				}

			}
, 			{
				"box" : 				{
					"fontface" : 0,
					"fontsize" : 12.0,
					"id" : "obj-64",
					"maxclass" : "live.text",
					"numinlets" : 1,
					"numoutlets" : 2,
					"outlettype" : [ "", "" ],
					"parameter_enable" : 1,
					"patching_rect" : [ 152.0, 88.0, 40.0, 20.0 ],
					"presentation" : 1,
					"presentation_rect" : [ 54.237183, 14.975006, 50.631897, 18.049999 ],
					"saved_attribute_attributes" : 					{
						"valueof" : 						{
							"parameter_longname" : "live.text[7]",
							"parameter_shortname" : "live.text[2]",
							"parameter_type" : 2,
							"parameter_mmax" : 1.0,
							"parameter_enum" : [ "val1", "val2" ],
							"parameter_invisible" : 2
						}

					}
,
					"text" : "pitch",
					"texton" : "pitch",
					"varname" : "live.text[1]"
				}

			}
, 			{
				"box" : 				{
					"fontface" : 0,
					"fontsize" : 12.0,
					"id" : "obj-65",
					"maxclass" : "live.text",
					"numinlets" : 1,
					"numoutlets" : 2,
					"outlettype" : [ "", "" ],
					"parameter_enable" : 1,
					"patching_rect" : [ 90.0, 88.0, 40.0, 20.0 ],
					"presentation" : 1,
					"presentation_rect" : [ 0.0, 14.975006, 50.631897, 18.049999 ],
					"saved_attribute_attributes" : 					{
						"valueof" : 						{
							"parameter_longname" : "live.text[8]",
							"parameter_shortname" : "live.text[2]",
							"parameter_type" : 2,
							"parameter_mmax" : 1.0,
							"parameter_enum" : [ "val1", "val2" ],
							"parameter_invisible" : 2
						}

					}
,
					"text" : "start",
					"texton" : "start",
					"varname" : "live.text[5]"
				}

			}
, 			{
				"box" : 				{
					"activebgcolor" : [ 0.92549, 0.364706, 0.341176, 0.2 ],
					"activebgoncolor" : [ 0.92549, 0.364706, 0.341176, 1.0 ],
					"fontface" : 0,
					"fontsize" : 12.0,
					"id" : "obj-44",
					"maxclass" : "live.text",
					"mode" : 0,
					"numinlets" : 1,
					"numoutlets" : 2,
					"outlettype" : [ "", "" ],
					"parameter_enable" : 1,
					"patching_rect" : [ 583.25, 301.5, 40.0, 20.0 ],
					"presentation" : 1,
					"presentation_rect" : [ 168.985596, 147.5, 44.486755, 20.0 ],
					"saved_attribute_attributes" : 					{
						"valueof" : 						{
							"parameter_longname" : "live.text[6]",
							"parameter_shortname" : "live.text[6]",
							"parameter_type" : 2,
							"parameter_mmax" : 1.0,
							"parameter_enum" : [ "val1", "val2" ],
							"parameter_invisible" : 2
						}

					}
,
					"text" : "flip",
					"varname" : "live.text[4]"
				}

			}
, 			{
				"box" : 				{
					"fontface" : 0,
					"fontsize" : 12.0,
					"id" : "obj-43",
					"maxclass" : "live.text",
					"numinlets" : 1,
					"numoutlets" : 2,
					"outlettype" : [ "", "" ],
					"parameter_enable" : 1,
					"patching_rect" : [ 269.200012, 91.5, 56.0, 20.0 ],
					"presentation" : 1,
					"presentation_rect" : [ 162.840454, 14.975006, 50.631897, 18.049999 ],
					"saved_attribute_attributes" : 					{
						"valueof" : 						{
							"parameter_longname" : "live.text[5]",
							"parameter_shortname" : "live.text[2]",
							"parameter_type" : 2,
							"parameter_mmax" : 1.0,
							"parameter_enum" : [ "val1", "val2" ],
							"parameter_invisible" : 2
						}

					}
,
					"text" : "duration",
					"texton" : "duration",
					"varname" : "live.text[3]"
				}

			}
, 			{
				"box" : 				{
					"fontface" : 0,
					"fontsize" : 12.0,
					"id" : "obj-40",
					"maxclass" : "live.text",
					"numinlets" : 1,
					"numoutlets" : 2,
					"outlettype" : [ "", "" ],
					"parameter_enable" : 1,
					"patching_rect" : [ 208.0, 91.5, 48.0, 20.0 ],
					"presentation" : 1,
					"presentation_rect" : [ 108.603271, 14.975006, 50.631897, 18.049999 ],
					"saved_attribute_attributes" : 					{
						"valueof" : 						{
							"parameter_longname" : "live.text[4]",
							"parameter_shortname" : "live.text[2]",
							"parameter_type" : 2,
							"parameter_mmax" : 1.0,
							"parameter_enum" : [ "val1", "val2" ],
							"parameter_invisible" : 2
						}

					}
,
					"text" : "velocity",
					"texton" : "velocity",
					"varname" : "live.text[2]"
				}

			}
, 			{
				"box" : 				{
					"fontface" : 0,
					"id" : "obj-16",
					"maxclass" : "comment",
					"numinlets" : 1,
					"numoutlets" : 0,
					"patching_rect" : [ 410.950012, 287.0, 74.0, 20.0 ],
					"presentation" : 1,
					"presentation_rect" : [ -5.946747, 93.5, 71.0, 20.0 ],
					"style" : "",
					"text" : "randomize",
					"textjustification" : 1
				}

			}
 ],
		"lines" : [ 			{
				"patchline" : 				{
					"destination" : [ "obj-25", 0 ],
					"source" : [ "obj-139", 0 ]
				}

			}
, 			{
				"patchline" : 				{
					"destination" : [ "obj-31", 0 ],
					"source" : [ "obj-24", 0 ]
				}

			}
, 			{
				"patchline" : 				{
					"destination" : [ "obj-24", 0 ],
					"source" : [ "obj-25", 0 ]
				}

			}
, 			{
				"patchline" : 				{
					"color" : [ 0.65098, 0.65098, 0.65098, 0.0 ],
					"destination" : [ "obj-92", 0 ],
					"source" : [ "obj-36", 1 ]
				}

			}
, 			{
				"patchline" : 				{
					"color" : [ 0.65098, 0.65098, 0.65098, 0.0 ],
					"destination" : [ "obj-93", 0 ],
					"source" : [ "obj-36", 0 ]
				}

			}
 ],
		"parameters" : 		{
			"obj-31::obj-168" : [ "velocity range[19]", "velrange", 0 ],
			"obj-139" : [ "live.menu[13]", "live.menu[5]", 0 ],
			"obj-31::obj-164" : [ "live.menu[21]", "live.menu[5]", 0 ],
			"obj-31::obj-169" : [ "live.text[9]", "live.text[2]", 0 ],
			"obj-44" : [ "live.text[6]", "live.text[6]", 0 ],
			"obj-110" : [ "live.text[16]", "live.text[6]", 0 ],
			"obj-31::obj-172" : [ "velocity range[17]", "velrange", 0 ],
			"obj-31::obj-167" : [ "live.menu[17]", "live.menu", 0 ],
			"obj-43" : [ "live.text[5]", "live.text[2]", 0 ],
			"obj-40" : [ "live.text[4]", "live.text[2]", 0 ],
			"obj-65" : [ "live.text[8]", "live.text[2]", 0 ],
			"obj-156" : [ "live.text[20]", "live.text[6]", 0 ],
			"obj-64" : [ "live.text[7]", "live.text[2]", 0 ]
		}
,
		"dependency_cache" : [ 			{
				"name" : "ui-swap-grouping.maxpat",
				"bootpath" : "D:/workspace/ableton-midi-sculptor/sculptor-device",
				"patcherrelativepath" : ".",
				"type" : "JSON",
				"implicit" : 1
			}
 ],
		"autosave" : 0,
		"styles" : [ 			{
				"name" : "newobjBlue-1",
				"default" : 				{
					"accentcolor" : [ 0.317647, 0.654902, 0.976471, 1.0 ]
				}
,
				"parentstyle" : "",
				"multi" : 0
			}
, 			{
				"name" : "newobjGreen-1",
				"default" : 				{
					"accentcolor" : [ 0.0, 0.533333, 0.168627, 1.0 ]
				}
,
				"parentstyle" : "",
				"multi" : 0
			}
, 			{
				"name" : "newobjYellow-1",
				"default" : 				{
					"fontsize" : [ 12.059008 ],
					"accentcolor" : [ 0.82517, 0.78181, 0.059545, 1.0 ]
				}
,
				"parentstyle" : "",
				"multi" : 0
			}
 ]
	}

}
